<svg xmlns="http://www.w3.org/2000/svg" viewBox="0 0 16 16">
  <title>Académie de piano Bérénice</title>
  <path d="M8.2 1.3c-.7.7-1 1.7-1 2.7 0 1 .3 2 .8 3.2-1.8 1.3-3.1 2.8-3.1 4.8 0 1.8 1.3 3.3 2.9 3.8l.2 1.5c.1.4 0 .8-.3 1.1-.3.3-.7.5-1.2.5-.7 0-1.2-.4-1.4-1 .6-.1 1.1-.6 1.1-1.3 0-.8-.6-1.4-1.4-1.4s-1.4.6-1.4 1.4c0 1.5 1.3 2.7 2.9 2.7.9 0 1.7-.3 2.2-.9.5-.6.7-1.3.6-2l-.3-1.4c.1 0 .2 0 .4.1 1.8 0 3.2-1.4 3.2-3.2 0-1.5-1-2.7-2.3-3.1l-.3-2c.9-.8 1.5-1.9 1.5-3.1 0-1-.3-1.8-.9-2.5-.1-.1-.2-.1-.3 0-.6.5-1 1.4-1 2.4 0 1.1.5 2 1.2 2.7l.3 1.9c-.2 0-.4-.1-.6-.1-1.7 0-3.1 1.4-3.1 3.1 0 1.2.6 2.2 1.6 2.7l-.2-1.2c-.4-.3-.6-.8-.6-1.3 0-.9.7-1.6 1.6-1.6s1.6.7 1.6 1.6c0 .8-.5 1.4-1.2 1.6l-.3-1.7c-.1-.6-.2-1.1-.5-1.7-.5-1.2-.8-2.2-.8-3.2 0-.8.2-1.5.6-2.1.1-.1.1-.2 0-.3-.1-.1-.2-.1-.3 0z"/>
</svg>